HIERARCHY
ROOT Hips
{
	OFFSET 0.000000 35.082581 0.000000
	CHANNELS 6 Xposition Yposition Zposition Xrotation Yrotation Zrotation 
	JOINT Spine
	{
		OFFSET 0.000000 6.876099 0.125700
		CHANNELS 3 Xrotation Yrotation Zrotation
		JOINT Spine1
		{
			OFFSET 0.000000 5.730043 0.104720
			CHANNELS 3 Xrotation Yrotation Zrotation
			JOINT Spine1_split
			{
				OFFSET 0.000000 5.730043 0.104720
				CHANNELS 3 Xrotation Yrotation Zrotation
				JOINT Spine2
				{
					OFFSET 0.000000 5.730043 0.104720
					CHANNELS 3 Xrotation Yrotation Zrotation
					JOINT Neck
					{
						OFFSET 0.000000 10.314075 0.188496
						CHANNELS 3 Xrotation Yrotation Zrotation
						JOINT Head
						{
							OFFSET 0.000000 7.643700 -2.377400
							CHANNELS 3 Xrotation Yrotation Zrotation
							JOINT HeadTop_End
							{
								OFFSET 0.000000 43.788605 -13.619600
								CHANNELS 3 Xrotation Yrotation Zrotation
								End Site
								{
									OFFSET 0.000000 0.000000 0.000000
								}
							}
						}
					}
					JOINT LeftShoulder
					{
						OFFSET 2.196100 4.412489 0.087492
						CHANNELS 3 Xrotation Yrotation Zrotation
						JOINT LeftShoulder_split
						{
							OFFSET 2.196100 4.412489 0.087492
							CHANNELS 3 Xrotation Yrotation Zrotation
							JOINT LeftArm
							{
								OFFSET 8.771219 -2.981674 -0.026999
								CHANNELS 3 Xrotation Yrotation Zrotation
								JOINT LeftForeArm
								{
									OFFSET 8.512804 0.000000 -0.000000
									CHANNELS 3 Xrotation Yrotation Zrotation
									JOINT LeftHand
									{
										OFFSET 18.484802 0.000000 -0.000000
										CHANNELS 3 Xrotation Yrotation Zrotation
										JOINT LeftHandThumb1
										{
											OFFSET 2.499420 -1.158070 2.653252
											CHANNELS 3 Xrotation Yrotation Zrotation
											JOINT LeftHandThumb2
											{
												OFFSET 2.370079 -1.368366 1.368366
												CHANNELS 3 Xrotation Yrotation Zrotation
												JOINT LeftHandThumb3
												{
													OFFSET 2.676727 -1.545410 1.545409
													CHANNELS 3 Xrotation Yrotation Zrotation
													JOINT LeftHandThumb4
													{
														OFFSET 1.692226 -0.977005 0.977007
														CHANNELS 3 Xrotation Yrotation Zrotation
														End Site
														{
															OFFSET 0.000000 0.000000 0.000000
														}
													}
												}
											}
										}
										JOINT LeftHandIndex1
										{
											OFFSET 7.924831 -0.457527 2.345128
											CHANNELS 3 Xrotation Yrotation Zrotation
											JOINT LeftHandIndex2
											{
												OFFSET 3.643303 0.000000 0.000000
												CHANNELS 3 Xrotation Yrotation Zrotation
												JOINT LeftHandIndex3
												{
													OFFSET 3.810799 0.000000 0.000000
													CHANNELS 3 Xrotation Yrotation Zrotation
													JOINT LeftHandIndex4
													{
														OFFSET 2.403702 0.000000 0.000000
														CHANNELS 3 Xrotation Yrotation Zrotation
														End Site
														{
															OFFSET 0.000000 0.000000 0.000000
														}
													}
												}
											}
										}
										JOINT LeftHandMiddle1
										{
											OFFSET 8.563995 0.000000 -0.000000
											CHANNELS 3 Xrotation Yrotation Zrotation
											JOINT LeftHandMiddle2
											{
												OFFSET 3.861618 0.000000 0.000000
												CHANNELS 3 Xrotation Yrotation Zrotation
												JOINT LeftHandMiddle3
												{
													OFFSET 3.701603 0.000000 0.000000
													CHANNELS 3 Xrotation Yrotation Zrotation
													JOINT LeftHandMiddle4
													{
														OFFSET 2.322544 0.000000 0.000000
														CHANNELS 3 Xrotation Yrotation Zrotation
														End Site
														{
															OFFSET 0.000000 0.000000 0.000000
														}
													}
												}
											}
										}
										JOINT LeftHandRing1
										{
											OFFSET 8.426460 -0.424637 -3.286992
											CHANNELS 3 Xrotation Yrotation Zrotation
											JOINT LeftHandRing2
											{
												OFFSET 3.126408 0.000000 0.000000
												CHANNELS 3 Xrotation Yrotation Zrotation
												JOINT LeftHandRing3
												{
													OFFSET 3.085026 0.000000 0.000000
													CHANNELS 3 Xrotation Yrotation Zrotation
													JOINT LeftHandRing4
													{
														OFFSET 1.644005 0.000000 0.000000
														CHANNELS 3 Xrotation Yrotation Zrotation
														End Site
														{
															OFFSET 0.000000 0.000000 0.000000
														}
													}
												}
											}
										}
									}
								}
							}
						}
					}
					JOINT RightShoulder
					{
						OFFSET -2.196100 4.412496 0.070690
						CHANNELS 3 Xrotation Yrotation Zrotation
						JOINT RightShoulder_split
						{
							OFFSET -2.196100 4.412496 0.070690
							CHANNELS 3 Xrotation Yrotation Zrotation
							JOINT RightArm
							{
								OFFSET -8.771282 -2.981682 -0.094208
								CHANNELS 3 Xrotation Yrotation Zrotation
								JOINT RightForeArm
								{
									OFFSET -8.494598 0.000000 0.000000
									CHANNELS 3 Xrotation Yrotation Zrotation
									JOINT RightHand
									{
										OFFSET -18.483803 0.000000 0.000001
										CHANNELS 3 Xrotation Yrotation Zrotation
										JOINT RightHandThumb1
										{
											OFFSET -2.527351 -1.008072 2.575253
											CHANNELS 3 Xrotation Yrotation Zrotation
											JOINT RightHandThumb2
											{
												OFFSET -2.321518 -1.340328 1.340329
												CHANNELS 3 Xrotation Yrotation Zrotation
												JOINT RightHandThumb3
												{
													OFFSET -2.657753 -1.534454 1.534455
													CHANNELS 3 Xrotation Yrotation Zrotation
													JOINT RightHandThumb4
													{
														OFFSET -1.807510 -1.043568 1.043567
														CHANNELS 3 Xrotation Yrotation Zrotation
														End Site
														{
															OFFSET 0.000000 0.000000 0.000000
														}
													}
												}
											}
										}
										JOINT RightHandIndex1
										{
											OFFSET -8.811420 0.015533 2.887987
											CHANNELS 3 Xrotation Yrotation Zrotation
											JOINT RightHandIndex2
											{
												OFFSET -3.537502 0.000000 0.000000
												CHANNELS 3 Xrotation Yrotation Zrotation
												JOINT RightHandIndex3
												{
													OFFSET -3.356201 0.000000 0.000000
													CHANNELS 3 Xrotation Yrotation Zrotation
													JOINT RightHandIndex4
													{
														OFFSET -1.933098 0.000000 0.000000
														CHANNELS 3 Xrotation Yrotation Zrotation
														End Site
														{
															OFFSET 0.000000 0.000000 0.000000
														}
													}
												}
											}
										}
										JOINT RightHandMiddle1
										{
											OFFSET -8.178135 0.000000 0.000000
											CHANNELS 3 Xrotation Yrotation Zrotation
											JOINT RightHandMiddle2
											{
												OFFSET -3.901302 0.000000 0.000000
												CHANNELS 3 Xrotation Yrotation Zrotation
												JOINT RightHandMiddle3
												{
													OFFSET -3.909599 0.000000 0.000000
													CHANNELS 3 Xrotation Yrotation Zrotation
													JOINT RightHandMiddle4
													{
														OFFSET -2.376003 0.000000 0.000000
														CHANNELS 3 Xrotation Yrotation Zrotation
														End Site
														{
															OFFSET 0.000000 0.000000 0.000000
														}
													}
												}
											}
										}
										JOINT RightHandRing1
										{
											OFFSET -7.559013 0.014137 -2.865403
											CHANNELS 3 Xrotation Yrotation Zrotation
											JOINT RightHandRing2
											{
												OFFSET -3.449306 0.000000 0.000000
												CHANNELS 3 Xrotation Yrotation Zrotation
												JOINT RightHandRing3
												{
													OFFSET -3.362106 0.000000 0.000000
													CHANNELS 3 Xrotation Yrotation Zrotation
													JOINT RightHandRing4
													{
														OFFSET -2.076401 0.000000 0.000000
														CHANNELS 3 Xrotation Yrotation Zrotation
														End Site
														{
															OFFSET 0.000000 0.000000 0.000000
														}
													}
												}
											}
										}
									}
								}
							}
						}
					}
				}
			}
		}
	}
	JOINT LeftUpLeg
	{
		OFFSET 10.205400 -3.823500 0.155100
		CHANNELS 3 Xrotation Yrotation Zrotation
		JOINT LeftLeg
		{
			OFFSET 0.708757 -12.982077 0.567790
			CHANNELS 3 Xrotation Yrotation Zrotation
			JOINT LeftFoot
			{
				OFFSET -0.708756 -10.717838 -2.184338
				CHANNELS 3 Xrotation Yrotation Zrotation
				JOINT LeftToeBase
				{
					OFFSET 0.108149 -7.191104 7.560241
					CHANNELS 3 Xrotation Yrotation Zrotation
					JOINT LeftToe_End
					{
						OFFSET 0.070230 0.081724 4.490308
						CHANNELS 3 Xrotation Yrotation Zrotation
						End Site
						{
							OFFSET 0.000000 0.000000 0.000000
						}
					}
				}
			}
		}
	}
	JOINT RightUpLeg
	{
		OFFSET -10.205400 -3.823500 0.005500
		CHANNELS 3 Xrotation Yrotation Zrotation
		JOINT RightLeg
		{
			OFFSET -0.708756 -12.982134 0.610632
			CHANNELS 3 Xrotation Yrotation Zrotation
			JOINT RightFoot
			{
				OFFSET 0.708754 -10.717769 -1.945823
				CHANNELS 3 Xrotation Yrotation Zrotation
				JOINT RightToeBase
				{
					OFFSET -0.108140 -7.191069 7.372968
					CHANNELS 3 Xrotation Yrotation Zrotation
					JOINT RightToe_End
					{
						OFFSET -0.070227 0.081735 4.479403
						CHANNELS 3 Xrotation Yrotation Zrotation
						End Site
						{
							OFFSET 0.000000 0.000000 0.000000
						}
					}
				}
			}
		}
	}
}
MOTION
Frames: 4
Frame Time: 0.016667
-1.760594 33.467785 -1.295037 -9.054036 -5.130250 7.630326 2.386095 1.098101 -4.320710 4.666353 1.729999 -2.802046 0.000000 0.000000 0.000000 4.685182 1.690012 -2.793393 -2.808737 -0.350889 -5.041334 -1.723852 -2.292228 2.025737 -0.000000 -0.000000 -0.000000 4.034690 -13.464722 -7.420032 0.000000 0.000000 0.000000 5.772106 3.721081 -60.112939 11.491846 -25.077057 -5.820580 -8.196584 -3.557932 7.163523 -21.992147 17.035892 -2.008548 5.703908 22.366226 5.520012 -0.000010 0.000010 -0.000016 -0.000003 -0.000003 -0.000002 -2.899140 12.800601 -7.221989 2.739058 6.814375 -29.837640 -0.000007 0.000002 -0.000000 0.000001 -0.000000 0.000002 -8.983031 7.076821 -9.539572 4.275439 7.169718 -39.702360 -0.000001 -0.000003 -0.000008 0.000001 -0.000000 0.000000 -16.256873 8.648353 -21.626599 4.109017 6.928482 -36.756946 -0.000003 0.000008 -0.000007 0.000000 0.000000 -0.000001 3.919279 12.466717 7.900352 0.000000 0.000000 0.000000 -3.939681 -11.622643 68.565086 15.857372 12.603591 4.140677 -8.305430 0.914270 -6.259038 -21.991993 -17.035463 2.009232 5.703637 -22.367077 -5.520835 0.000007 0.000010 -0.000012 -0.000002 -0.000000 0.000001 -2.899137 -12.801061 7.221831 2.738651 -6.813223 29.837808 0.000000 -0.000009 0.000005 0.000001 -0.000002 0.000002 -8.983074 -7.076448 9.538891 4.275424 -7.169943 39.704054 0.000007 0.000002 -0.000004 0.000000 -0.000000 0.000003 -16.256656 -8.649624 21.626344 4.109560 -6.928329 36.756311 -0.000007 0.000008 0.000017 0.000000 -0.000000 0.000004 16.142302 13.417128 -12.837483 -2.789430 -0.360589 0.746941 -3.169985 0.002260 2.316611 0.000003 0.000005 0.000002 -0.000000 0.000001 0.000000 -8.074380 -12.819517 -26.770056 40.684435 4.095028 2.067979 -23.965225 -12.334006 8.698159 -0.000226 0.000006 0.000286 0.000000 -0.000003 -0.000000 
-1.781847 33.493160 -1.268734 -9.141190 -5.073289 7.568278 2.508761 1.073456 -4.325514 4.913430 1.686253 -2.761732 0.000000 0.000000 0.000000 4.931894 1.643645 -2.752654 -3.587674 -0.245977 -5.289811 -1.743661 -2.215875 1.752009 0.000000 0.000000 0.000000 3.979131 -13.925289 -7.123388 0.000000 0.000000 0.000000 8.808452 0.870763 -59.276193 9.104193 -28.163821 -6.388862 -8.185932 -3.893771 7.156331 -21.796561 17.067026 -2.254245 5.203260 22.372783 5.475956 -0.000010 0.000009 -0.000018 -0.000002 0.000001 -0.000002 -2.942364 12.989528 -7.794514 2.737329 6.823867 -30.157485 -0.000007 0.000003 0.000002 -0.000000 -0.000001 0.000002 -8.964746 7.351973 -10.247543 4.392805 7.266433 -40.753932 0.000000 -0.000003 -0.000011 -0.000001 0.000001 0.000001 -16.096205 8.801828 -21.946434 4.244140 7.047111 -37.953814 -0.000003 0.000008 -0.000011 -0.000000 -0.000000 -0.000003 3.867145 12.882181 7.705446 0.000000 0.000000 0.000000 -3.144259 -10.625765 68.163116 17.220654 14.146994 3.950137 -8.237061 -0.271347 -5.322037 -21.973243 -16.867420 2.049175 5.973378 -23.678910 -5.152965 0.000009 0.000007 -0.000011 0.000003 -0.000001 0.000002 -2.802266 -12.889474 8.069502 2.700019 -6.811035 29.794651 -0.000001 -0.000006 0.000003 0.000000 -0.000000 -0.000001 -9.075009 -7.233172 10.442668 4.430273 -7.269924 40.816811 0.000005 0.000003 -0.000007 -0.000000 -0.000000 -0.000003 -16.277755 -8.826625 22.153678 4.270818 -7.005731 38.208024 -0.000007 0.000007 0.000024 -0.000001 0.000000 -0.000003 14.275653 13.810195 -12.417248 0.938469 -0.481931 0.958523 -4.050639 0.158875 2.397193 -0.000008 -0.000001 -0.000002 0.000000 0.000001 0.000000 -7.908889 -12.869072 -26.496068 40.689769 3.865787 2.023239 -24.023517 -12.276832 8.273718 -0.000086 0.000013 0.000115 0.000000 0.000003 -0.000000 
-1.816106 33.565067 -1.217853 -9.322231 -4.944172 7.418944 2.748129 1.030754 -4.347143 5.395335 1.608660 -2.665654 0.000000 0.000000 0.000000 5.413138 1.560643 -2.655693 -4.963398 -0.057444 -5.756622 -1.813866 -2.079885 1.239584 -0.000000 -0.000000 0.000000 3.884192 -14.711375 -6.633746 0.000000 0.000000 0.000000 14.149909 -3.920243 -57.208141 5.105496 -33.594989 -7.629408 -8.168630 -4.251228 7.302866 -21.332265 17.091722 -2.837984 3.958080 22.289148 5.402733 -0.000007 0.000010 -0.000019 -0.000001 -0.000000 -0.000004 -3.076575 13.365437 -9.160874 2.825258 6.942465 -31.688810 -0.000002 -0.000001 -0.000001 -0.000000 -0.000001 -0.000001 -8.994078 7.873333 -11.761447 4.679770 7.511373 -43.257487 0.000001 -0.000002 -0.000010 -0.000002 0.000000 -0.000001 -15.795530 9.131200 -22.750957 4.548025 7.323666 -40.771506 -0.000002 0.000008 -0.000011 -0.000002 0.000001 0.000001 3.778987 13.585870 7.369173 0.000000 0.000000 0.000000 -1.561292 -8.690962 67.291133 19.661263 17.108693 3.253666 -8.102055 -2.099966 -3.619090 -21.920107 -16.431934 2.146745 5.822824 -25.325646 -4.915319 0.000009 0.000005 -0.000011 0.000001 -0.000000 0.000001 -2.709174 -13.063777 9.415213 2.637319 -6.812466 29.750791 0.000000 -0.000008 0.000006 -0.000001 -0.000001 0.000001 -9.249262 -7.574079 11.793335 4.704353 -7.483159 42.958717 0.000005 0.000002 -0.000006 -0.000000 -0.000001 -0.000001 -16.291704 -9.133674 22.933029 4.485015 -7.133882 40.801709 -0.000006 0.000007 0.000024 0.000001 0.000001 -0.000005 12.364087 14.142383 -11.779978 4.624727 -0.587696 1.002517 -4.312786 0.343716 2.650735 -0.000000 -0.000004 0.000000 0.000000 -0.000000 0.000000 -7.532286 -12.960681 -26.245499 40.557055 3.811923 2.005045 -23.340742 -12.378184 8.403606 -0.312311 -0.002166 0.396449 0.000000 0.000001 -0.000000 
-1.841505 33.674442 -1.128997 -9.541494 -4.767253 7.188070 3.008237 0.992678 -4.388841 5.918542 1.537689 -2.526865 0.000000 0.000000 0.000000 5.935775 1.483429 -2.515836 -6.201184 0.091968 -6.231188 -2.418390 -1.955305 0.684863 -0.000000 0.000000 0.000000 3.794414 -15.397642 -6.279940 0.000000 0.000000 0.000000 19.088017 -7.935509 -54.787946 2.088969 -38.551083 -8.015090 -8.160016 -4.316242 7.783463 -20.667466 17.055915 -3.671377 2.093579 21.990050 5.341689 -0.000011 0.000009 -0.000020 -0.000000 -0.000000 -0.000002 -3.328978 13.761971 -11.122458 3.108003 7.224230 -34.978280 -0.000005 -0.000000 -0.000001 -0.000001 0.000000 -0.000002 -9.153374 8.386891 -13.672319 5.098732 7.862123 -46.821661 -0.000002 -0.000003 -0.000010 -0.000001 -0.000002 -0.000001 -15.503479 9.530014 -23.916869 4.949139 7.703899 -44.692335 -0.000003 0.000011 -0.000015 0.000001 -0.000000 -0.000002 3.699341 14.186511 7.099034 0.000000 0.000000 0.000000 0.249534 -6.540124 66.152069 22.073778 20.344058 2.093852 -7.944375 -3.252926 -1.946586 -21.837810 -15.758133 2.290955 4.826204 -25.921275 -5.103672 0.000006 0.000006 -0.000014 -0.000000 -0.000000 0.000001 -2.750381 -13.242990 10.381498 2.660933 -6.889628 30.409573 -0.000001 -0.000008 0.000002 0.000001 0.000001 -0.000000 -9.463686 -7.971142 12.505465 4.961987 -7.753101 45.326337 0.000006 -0.000000 -0.000005 0.000001 -0.000003 -0.000001 -16.257553 -9.400703 23.322058 4.532918 -7.232891 43.244178 -0.000008 0.000005 0.000021 0.000000 -0.000001 -0.000003 11.487220 14.230613 -11.222933 6.360543 -0.637930 0.893068 -3.852321 0.439487 2.980366 -0.847939 0.010226 -0.690763 -0.000000 -0.000000 -0.000000 -7.002873 -13.275519 -26.067362 40.052591 3.854873 2.024733 -22.086914 -12.394711 8.887655 -0.782744 -0.013549 0.992408 0.000000 0.000003 0.000000 
